# Blender v2.78 (sub 0) OBJ File: ''
# www.blender.org
mtllib test sword.mtl
o Cylinder
v 0.000000 1.082113 -0.070803
v -0.003394 1.082113 -0.141604
v -0.000131 0.451518 -0.141604
v 0.000000 0.451517 -0.117116
v 0.000000 0.451517 -0.070803
v 0.000000 2.887458 -0.070801
v 0.000000 2.887458 -0.114683
v -0.002482 1.738207 -0.141604
v 0.000000 1.738207 -0.070801
v 0.000000 2.887458 0.032485
v 0.000000 2.887458 0.000002
v 0.000000 1.738207 0.000000
v 0.000000 1.738207 0.070803
v 0.000000 1.082113 0.070803
v 0.000000 1.082113 0.000000
v 0.000000 0.451517 0.000000
v 0.000000 0.451517 0.070803
v -0.010575 1.738207 0.141606
v -0.005438 1.082113 0.141606
v -0.000212 0.451517 0.141604
v -0.002101 3.203707 -0.343626
v -0.007256 2.887458 0.063244
v -0.016030 1.082113 -0.070803
v -0.016030 0.451517 -0.070803
v -0.016030 0.451518 -0.138854
v -0.015665 0.451518 -0.141604
v -0.006613 1.082113 -0.141604
v -0.016030 2.887458 -0.070801
v -0.016030 1.738207 -0.070801
v -0.006843 1.738207 -0.141604
v -0.009216 2.887458 -0.114683
v -0.016030 2.887458 0.032485
v -0.016030 1.738207 0.070803
v -0.016030 1.738207 0.000000
v -0.016030 2.887458 0.000002
v -0.016030 1.082113 0.070803
v -0.016030 0.451517 0.070803
v -0.016030 0.451517 0.000000
v -0.016030 1.082113 0.000000
v -0.012672 1.738207 0.141606
v -0.010763 1.082113 0.141606
v -0.015826 0.451517 0.141604
v -0.006731 3.203707 -0.343626
v -0.011962 2.887458 0.063244
v 0.000000 -0.347822 -0.153020
v 0.000000 0.451518 -0.153020
v 0.024725 0.451518 -0.150080
v 0.024725 -0.347822 -0.150080
v 0.048500 0.451518 -0.141371
v 0.048500 -0.347822 -0.141371
v 0.070410 0.451517 -0.127230
v 0.070410 -0.347822 -0.127231
v 0.089615 0.451517 -0.108200
v 0.089615 -0.347822 -0.108202
v 0.105375 0.451517 -0.085012
v 0.105375 -0.347822 -0.085012
v 0.117088 0.451517 -0.058557
v 0.117088 -0.347822 -0.058557
v 0.124299 0.451517 -0.029853
v 0.124299 -0.347822 -0.029853
v 0.126735 0.451517 0.000000
v 0.126735 -0.347822 -0.000000
v 0.124299 0.451517 0.029853
v 0.124299 -0.347822 0.029853
v 0.117088 0.451517 0.058557
v 0.117088 -0.347822 0.058557
v 0.105375 0.451517 0.085012
v 0.105375 -0.347822 0.085012
v 0.089615 0.451517 0.108202
v 0.089615 -0.347822 0.108200
v 0.070410 0.451517 0.127231
v 0.070410 -0.347822 0.127230
v 0.048500 0.451517 0.141371
v 0.048500 -0.347822 0.141371
v 0.024725 0.451517 0.150080
v 0.024725 -0.347822 0.150080
v 0.000000 0.451517 0.153020
v 0.000000 -0.347822 0.153020
v -0.024725 0.451517 0.150080
v -0.024725 -0.347822 0.150080
v -0.048500 0.451517 0.141371
v -0.048500 -0.347822 0.141371
v -0.070410 0.451517 0.127231
v -0.070410 -0.347822 0.127230
v -0.089615 0.451517 0.108202
v -0.089615 -0.347822 0.108200
v -0.105375 0.451517 0.085012
v -0.105375 -0.347822 0.085012
v -0.117088 0.451517 0.058557
v -0.117088 -0.347822 0.058557
v -0.124299 0.451517 0.029852
v -0.124299 -0.347822 0.029852
v -0.126735 0.451517 0.000000
v -0.126735 -0.347822 -0.000000
v -0.124299 0.451517 -0.029853
v -0.124299 -0.347822 -0.029853
v -0.117088 0.451517 -0.058559
v -0.117088 -0.347822 -0.058559
v -0.105375 0.451517 -0.085014
v -0.105375 -0.347822 -0.085014
v -0.089615 0.451517 -0.108200
v -0.089615 -0.347822 -0.108202
v -0.070409 0.451517 -0.127230
v -0.070409 -0.347822 -0.127232
v -0.048498 0.451518 -0.141371
v -0.048498 -0.347822 -0.141371
v -0.024725 0.451518 -0.150080
v -0.024725 -0.347822 -0.150080
vn -0.9997 -0.0027 0.0249
vn -0.9998 0.0008 0.0216
vn -1.0000 -0.0020 0.0000
vn -1.0000 -0.0033 0.0000
vn -1.0000 0.0000 0.0000
vn -0.9937 -0.0039 -0.1124
vn -0.9992 -0.0041 -0.0399
vn -1.0000 -0.0066 0.0000
vn -0.9374 -0.2692 -0.2211
vn -0.9849 -0.0074 -0.1729
vn -1.0000 -0.0044 0.0000
vn -0.9991 0.0007 0.0415
vn 0.9976 -0.0074 0.0689
vn 0.9904 -0.0006 0.1382
vn 0.9910 -0.0002 0.1342
vn 1.0000 0.0000 0.0000
vn 0.9978 -0.0012 -0.0667
vn 0.9981 0.0015 -0.0608
vn 0.9978 -0.0013 -0.0669
vn 0.9992 -0.0040 -0.0386
vn 0.9996 -0.0294 0.0000
vn 0.9748 -0.1820 -0.1289
vn 0.9973 -0.0040 -0.0729
vn 0.9829 0.1028 0.1526
vn 0.9915 0.0002 0.1303
vn 0.0000 -0.0680 -0.9977
vn 0.0000 -0.0234 0.9997
vn 0.0000 0.5864 0.8100
vn 0.0000 0.0000 -1.0000
vn 0.0000 -0.0000 1.0000
vn 0.0000 -0.7895 -0.6137
vn 0.1181 0.0000 -0.9930
vn 0.3439 0.0000 -0.9390
vn 0.5423 0.0000 -0.8402
vn 0.7039 0.0000 -0.7103
vn 0.8271 0.0000 -0.5621
vn 0.9144 0.0000 -0.4048
vn 0.9699 0.0000 -0.2437
vn 0.9967 0.0000 -0.0813
vn 0.9967 -0.0000 0.0813
vn 0.9699 -0.0000 0.2437
vn 0.9144 -0.0000 0.4048
vn 0.8271 -0.0000 0.5621
vn 0.7039 -0.0000 0.7103
vn 0.5423 -0.0000 0.8402
vn 0.3439 -0.0000 0.9390
vn 0.1181 -0.0000 0.9930
vn -0.1181 -0.0000 0.9930
vn -0.3439 -0.0000 0.9390
vn -0.5423 -0.0000 0.8402
vn -0.7039 -0.0000 0.7103
vn -0.8271 -0.0000 0.5621
vn -0.9144 -0.0000 0.4048
vn -0.9699 -0.0000 0.2437
vn -0.9967 -0.0000 0.0813
vn -0.9967 0.0000 -0.0813
vn -0.9699 0.0000 -0.2437
vn -0.9144 0.0000 -0.4048
vn -0.8270 0.0000 -0.5621
vn -0.7038 0.0000 -0.7104
vn -0.5422 0.0000 -0.8402
vn 0.0000 1.0000 0.0000
vn -0.3440 0.0000 -0.9390
vn -0.1181 0.0000 -0.9930
vn 0.0000 -1.0000 -0.0000
usemtl None
s 1
f 1//1 2//1 3//1 4//1 5//1
f 6//2 7//2 8//2 9//2
f 10//3 11//4 12//5 13//5
f 14//5 15//5 16//5 17//5
f 13//5 12//5 15//5 14//5
f 18//6 13//6 14//6 19//6
f 19//7 14//7 17//7 20//7
f 21//8 11//4 10//3
f 21//9 10//9 22//9
f 22//10 10//10 13//10 18//10
f 21//8 7//8 6//11
f 21//8 6//11 11//4
f 11//4 6//11 9//5 12//5
f 9//12 8//12 2//12 1//12
f 12//5 9//5 1//5 15//5
f 15//5 1//5 5//5 16//5
f 23//13 24//13 25//13 26//13 27//13
f 28//14 29//15 30//15 31//14
f 32//16 33//16 34//16 35//16
f 36//16 37//16 38//16 39//16
f 33//16 36//16 39//16 34//16
f 40//17 41//18 36//18 33//19
f 41//20 42//20 37//20 36//20
f 43//21 32//21 35//21
f 43//22 44//22 32//22
f 44//23 40//17 33//19 32//23
f 43//24 28//24 31//24
f 43//21 35//21 28//21
f 35//16 34//16 29//16 28//16
f 29//15 23//25 27//25 30//15
f 34//16 39//16 23//16 29//16
f 39//16 38//16 24//16 23//16
f 22//26 18//26 40//26 44//26
f 8//27 7//27 31//27 30//27
f 7//28 21//28 43//28 31//28
f 19//29 20//29 42//29 41//29
f 2//30 8//30 30//30 27//30
f 18//29 19//29 41//29 40//29
f 21//31 22//31 44//31 43//31
f 45//32 46//32 47//32 48//32
f 48//33 47//33 49//33 50//33
f 50//34 49//34 51//34 52//34
f 52//35 51//35 53//35 54//35
f 54//36 53//36 55//36 56//36
f 56//37 55//37 57//37 58//37
f 58//38 57//38 59//38 60//38
f 60//39 59//39 61//39 62//39
f 62//40 61//40 63//40 64//40
f 64//41 63//41 65//41 66//41
f 66//42 65//42 67//42 68//42
f 68//43 67//43 69//43 70//43
f 70//44 69//44 71//44 72//44
f 72//45 71//45 73//45 74//45
f 74//46 73//46 75//46 76//46
f 76//47 75//47 77//47 78//47
f 78//48 77//48 79//48 80//48
f 80//49 79//49 81//49 82//49
f 82//50 81//50 83//50 84//50
f 84//51 83//51 85//51 86//51
f 86//52 85//52 87//52 88//52
f 88//53 87//53 89//53 90//53
f 90//54 89//54 91//54 92//54
f 92//55 91//55 93//55 94//55
f 94//56 93//56 95//56 96//56
f 96//57 95//57 97//57 98//57
f 98//58 97//58 99//58 100//58
f 100//59 99//59 101//59 102//59
f 102//60 101//60 103//60 104//60
f 104//61 103//61 105//61 106//61
f 47//62 46//62 107//62 105//62 25//62 26//62 3//62 4//62 51//62 49//62
f 106//63 105//63 107//63 108//63
f 108//64 107//64 46//64 45//64
f 45//65 48//65 50//65 52//65 54//65 56//65 58//65 60//65 62//65 64//65 66//65 68//65 70//65 72//65 74//65 76//65 78//65 80//65 82//65 84//65 86//65 88//65 90//65 92//65 94//65 96//65 98//65 100//65 102//65 104//65 106//65 108//65
f 26//30 3//30 2//30 27//30
f 51//62 4//62 5//62 16//62 17//62 20//62 42//62 37//62 38//62 24//62 25//62 105//62 103//62 101//62 99//62 97//62 95//62 93//62 91//62 89//62 87//62 85//62 83//62 81//62 79//62 77//62 75//62 73//62 71//62 69//62 67//62 65//62 63//62 61//62 59//62 57//62 55//62 53//62
